<?xml version="1.0" standalone="no"?>
<!DOCTYPE svg PUBLIC "-//W3C//DTD SVG 20010904//EN"
 "http://www.w3.org/TR/2001/REC-SVG-20010904/DTD/svg10.dtd">
<svg version="1.0" xmlns="http://www.w3.org/2000/svg"
 width="1888.000000pt" height="1888.000000pt" viewBox="0 0 1888.000000 1888.000000"
 preserveAspectRatio="xMidYMid meet">
<metadata>
Created by potrace 1.14, written by Peter Selinger 2001-2017
</metadata>
<g transform="translate(0.000000,1888.000000) scale(0.100000,-0.100000)"
fill="#000000" stroke="none">
<path d="M629 13276 c-2 -2 -22 -6 -44 -9 -92 -13 -204 -62 -291 -128 -72 -54
-153 -137 -154 -156 0 -7 -4 -13 -9 -13 -10 0 -88 -158 -95 -193 -2 -15 -7
-30 -9 -34 -10 -16 -20 -110 -20 -178 1 -97 4 -112 58 -286 19 -64 38 -125 40
-135 6 -25 44 -143 55 -169 4 -11 13 -40 20 -65 7 -25 15 -52 18 -60 3 -8 6
-21 8 -28 1 -8 6 -21 10 -30 4 -9 8 -22 10 -29 3 -18 24 -86 33 -108 5 -11 13
-36 19 -55 32 -104 106 -344 125 -400 12 -36 22 -67 22 -70 3 -15 56 -187 71
-225 9 -26 12 -36 18 -60 2 -11 5 -20 6 -20 1 0 3 -7 5 -15 2 -8 10 -34 19
-57 8 -24 13 -43 9 -43 -3 0 -1 -6 5 -12 5 -7 13 -29 17 -48 4 -19 12 -46 18
-60 6 -14 11 -28 12 -32 2 -5 3 -9 5 -10 1 -2 3 -10 5 -19 1 -9 24 -83 50
-165 26 -82 56 -178 67 -214 11 -36 22 -72 25 -80 3 -8 7 -20 8 -26 2 -7 17
-56 35 -110 18 -55 34 -106 35 -114 2 -8 4 -16 5 -17 2 -2 3 -6 5 -10 1 -5 4
-15 7 -23 3 -8 10 -31 16 -50 5 -19 26 -87 47 -150 20 -63 37 -119 39 -125 1
-5 11 -37 21 -70 10 -33 18 -62 17 -65 0 -3 3 -9 8 -15 6 -8 21 -59 25 -85 0
-3 6 -18 12 -35 11 -29 103 -317 108 -339 1 -6 5 -19 9 -28 4 -9 9 -25 11 -35
2 -10 4 -19 5 -20 2 -2 3 -6 4 -10 4 -16 58 -189 64 -203 3 -8 7 -19 7 -25 1
-5 7 -23 13 -38 7 -16 12 -32 12 -36 0 -5 13 -48 29 -97 16 -49 43 -134 60
-189 17 -55 37 -120 45 -145 36 -110 120 -376 123 -387 2 -7 4 -20 6 -28 2 -8
6 -18 10 -21 4 -4 7 -17 7 -29 0 -12 3 -25 7 -29 4 -3 8 -16 10 -28 2 -12 8
-27 14 -35 6 -7 9 -13 5 -13 -3 0 0 -16 8 -35 9 -20 15 -36 14 -38 -1 -1 4
-18 10 -37 6 -19 34 -109 62 -200 29 -91 60 -190 70 -220 10 -30 33 -102 50
-160 17 -58 33 -111 35 -118 3 -7 5 -16 6 -20 0 -4 8 -23 16 -42 8 -19 17 -46
19 -60 7 -34 77 -204 86 -208 4 -2 8 -10 8 -18 0 -8 5 -20 10 -27 6 -7 32 -46
59 -87 26 -41 60 -87 74 -102 14 -16 24 -28 22 -28 -9 0 114 -116 175 -164 78
-63 161 -113 255 -156 101 -46 103 -47 180 -68 69 -20 100 -26 180 -40 53 -9
549 -9 602 0 169 29 323 83 468 166 120 68 305 235 376 338 18 27 36 51 41 52
4 2 8 10 8 18 0 8 5 14 11 14 5 0 8 4 4 9 -3 5 0 13 6 17 21 13 149 304 134
304 -3 0 4 20 15 45 11 25 19 48 19 50 0 3 11 40 25 83 109 336 138 429 141
442 2 8 23 71 45 140 23 69 43 130 45 135 1 6 5 17 8 25 17 44 117 367 117
378 0 6 4 12 8 12 5 0 9 6 9 13 0 14 29 117 46 162 7 17 12 32 12 35 1 5 92
287 127 395 11 33 21 65 23 70 1 6 5 18 9 27 4 9 9 25 11 35 2 10 4 18 5 18 1
0 3 7 5 15 2 8 15 47 28 87 14 39 23 74 19 77 -3 3 1 6 8 6 7 0 11 3 8 6 -4 3
7 45 24 92 16 48 31 94 33 102 2 8 18 58 35 110 17 52 53 167 81 255 28 88 55
169 59 180 8 17 57 172 64 200 2 6 6 17 9 25 3 8 36 111 73 228 38 116 71 212
74 212 6 0 34 -86 142 -425 27 -88 54 -169 58 -180 5 -11 32 -94 60 -185 28
-91 54 -172 57 -180 3 -8 7 -19 9 -25 1 -5 21 -68 45 -140 24 -71 44 -133 45
-137 1 -5 2 -9 4 -10 1 -2 3 -10 5 -18 4 -17 72 -231 115 -360 16 -47 62 -191
103 -320 89 -280 91 -284 92 -290 1 -3 5 -13 9 -22 4 -9 9 -22 10 -30 3 -14 7
-25 25 -78 7 -19 13 -39 15 -45 6 -27 59 -191 64 -200 4 -5 7 -15 8 -22 3 -15
23 -82 33 -108 5 -11 13 -36 19 -55 38 -124 116 -367 121 -375 3 -5 6 -15 7
-22 3 -16 84 -271 142 -443 64 -191 123 -303 230 -440 42 -53 153 -164 200
-200 18 -14 43 -33 54 -42 12 -10 25 -18 29 -18 4 0 14 -6 22 -14 18 -18 174
-98 245 -126 67 -26 166 -51 267 -68 52 -8 341 -7 380 2 17 4 57 14 90 23 33
8 65 16 70 17 73 14 317 136 378 190 9 9 19 16 22 16 13 0 176 156 220 211 47
58 75 98 75 108 0 6 4 11 9 11 21 0 150 296 176 405 1 6 5 17 8 25 12 31 69
216 73 240 3 13 8 27 12 30 4 3 8 14 10 25 2 11 6 27 9 35 3 8 7 20 8 26 3 13
85 275 92 294 3 8 7 20 8 26 2 10 67 217 118 374 6 19 12 40 13 45 7 28 117
373 124 390 5 11 16 47 25 80 9 33 20 69 24 80 5 11 21 61 36 110 15 50 41
133 58 185 17 52 32 100 33 106 1 7 25 85 54 174 29 89 53 167 55 174 1 6 7
24 13 39 7 16 12 33 12 38 0 6 11 43 24 82 13 40 35 108 49 152 89 286 109
352 115 365 7 19 7 18 16 60 5 19 12 40 16 45 5 6 8 12 8 15 -1 9 43 155 59
195 8 22 17 48 19 58 10 42 13 54 28 95 8 23 16 44 16 47 0 3 2 10 5 17 11 35
47 150 49 161 2 6 6 19 9 27 3 8 13 40 22 70 10 30 19 62 22 70 4 8 7 20 8 25
2 6 24 78 51 160 26 83 49 155 50 160 1 6 19 62 39 125 20 63 38 120 39 125 2
11 76 245 128 405 17 52 32 102 33 110 2 8 4 16 5 18 2 1 4 7 5 12 1 6 4 12 5
15 1 3 3 8 4 13 12 46 51 164 62 190 9 19 13 36 10 39 -3 3 1 18 10 34 8 16
14 30 13 31 -2 4 69 234 87 281 7 20 12 37 9 37 -2 0 3 16 11 36 36 87 38 278
4 405 -13 49 -68 164 -101 211 -34 49 -157 165 -190 180 -16 7 -29 16 -29 19
0 10 -99 50 -184 75 -68 19 -97 22 -225 19 -127 -3 -171 -7 -276 -29 -150 -32
-402 -159 -517 -261 -15 -14 -33 -25 -40 -25 -6 0 -9 -2 -6 -5 3 -3 -21 -31
-52 -63 -57 -57 -160 -184 -160 -197 0 -3 -14 -26 -30 -50 -17 -24 -30 -46
-30 -49 0 -3 -13 -33 -30 -68 -30 -65 -58 -147 -130 -378 -23 -74 -47 -151
-53 -170 -6 -19 -12 -37 -12 -40 -1 -3 -4 -12 -7 -20 -6 -19 -25 -76 -78 -250
-23 -74 -47 -148 -53 -165 -6 -16 -12 -34 -13 -40 0 -5 -2 -13 -4 -17 -1 -5
-3 -11 -5 -15 -1 -5 -4 -15 -8 -23 -8 -21 -27 -83 -32 -106 -2 -10 -18 -62
-35 -114 -17 -52 -56 -174 -86 -270 -30 -96 -72 -231 -94 -300 -22 -69 -53
-170 -71 -225 -17 -55 -37 -118 -44 -140 -20 -56 -69 -220 -67 -222 1 -2 -6
-19 -14 -40 -9 -20 -17 -44 -19 -52 -2 -9 -42 -140 -90 -291 -48 -151 -95
-302 -105 -335 -10 -33 -33 -105 -50 -160 -32 -101 -53 -166 -55 -175 -1 -3
-12 -38 -25 -79 -22 -72 -34 -79 -43 -25 -1 11 -5 24 -9 29 -3 6 -13 33 -21
60 -8 28 -34 109 -57 180 -23 72 -43 135 -44 140 -2 6 -8 23 -14 38 -7 16 -12
32 -12 37 0 4 -14 50 -31 102 -36 110 -38 116 -40 126 -1 4 -6 18 -11 32 -5
14 -11 32 -13 40 -2 8 -17 53 -33 100 -16 47 -30 90 -31 95 -1 6 -8 28 -16 50
-21 60 -85 257 -90 279 -2 11 -22 74 -44 140 -21 67 -62 193 -91 281 -28 88
-54 167 -57 175 -3 8 -7 20 -8 25 -2 6 -24 78 -51 160 -26 83 -49 152 -49 155
-1 3 -4 12 -8 20 -3 8 -33 103 -67 210 -95 300 -122 383 -130 405 -5 11 -31
94 -60 185 -28 91 -54 172 -57 180 -4 8 -7 17 -8 20 -28 95 -48 157 -53 165
-4 6 -8 18 -9 28 -10 63 -84 229 -158 355 -35 60 -147 197 -195 238 -14 12
-38 34 -55 48 -103 92 -282 193 -415 235 -41 13 -82 26 -90 29 -25 8 -90 22
-125 25 -11 2 -24 5 -30 9 -20 12 -500 1 -500 -12 0 -1 -17 -3 -37 -6 -57 -7
-210 -59 -302 -103 -126 -60 -267 -162 -362 -261 -66 -70 -80 -88 -131 -164
-27 -39 -50 -73 -53 -76 -22 -20 -132 -289 -145 -353 -2 -10 -13 -45 -25 -77
-12 -32 -23 -67 -25 -77 -2 -10 -15 -51 -29 -90 -14 -40 -22 -73 -19 -73 3 0
0 -6 -6 -14 -7 -8 -13 -22 -15 -33 -4 -19 -68 -220 -112 -349 -13 -39 -24 -78
-24 -87 0 -9 -4 -17 -8 -17 -4 0 -8 -8 -9 -17 -1 -10 -33 -115 -72 -233 -119
-368 -233 -724 -236 -735 -1 -5 -5 -17 -8 -25 -3 -8 -18 -53 -32 -100 -15 -47
-29 -92 -32 -100 -4 -8 -7 -17 -8 -20 0 -3 -18 -59 -39 -125 -21 -66 -39 -124
-39 -130 -1 -5 -4 -12 -7 -15 -5 -4 -25 -62 -35 -100 -19 -70 -27 -99 -35
-115 -8 -19 -140 -427 -145 -449 -2 -11 -4 -16 -21 -61 -4 -11 -8 -25 -9 -31
-3 -10 -131 -413 -173 -539 -9 -27 -17 -52 -17 -55 -1 -3 -4 -12 -8 -20 -3 -8
-16 -49 -28 -90 -13 -41 -26 -79 -30 -83 -3 -5 -21 38 -38 95 -18 57 -35 112
-39 123 -3 11 -7 22 -7 25 -1 3 -4 12 -8 20 -3 8 -11 33 -17 55 -6 22 -14 47
-17 55 -3 8 -7 20 -8 26 -2 7 -17 56 -35 110 -18 55 -34 106 -35 114 -2 8 -4
16 -5 18 -2 1 -3 5 -5 10 -1 4 -4 14 -7 22 -3 8 -15 47 -27 85 -11 39 -39 126
-61 195 -22 69 -40 128 -40 132 0 4 -5 19 -12 35 -6 15 -12 34 -14 41 -1 6
-23 78 -49 160 -25 81 -59 188 -75 237 -15 50 -45 144 -65 210 -20 66 -39 127
-43 135 -3 8 -7 20 -7 25 -1 6 -7 23 -13 38 -7 16 -12 32 -12 36 0 4 -17 61
-39 126 -21 66 -48 154 -61 195 -23 74 -82 264 -135 430 -15 47 -28 90 -29 95
-2 11 -34 112 -43 135 -3 8 -7 20 -8 25 -1 6 -24 78 -50 160 -89 282 -104 330
-150 480 -26 83 -49 157 -51 165 -3 8 -4 15 -3 15 1 0 -6 18 -16 40 -9 22 -19
52 -22 68 -5 33 -81 209 -111 257 -12 19 -27 46 -34 60 -15 30 -19 35 -94 125
-72 86 -110 123 -194 190 -102 80 -246 161 -360 200 -3 1 -12 4 -20 8 -16 6
-103 30 -107 28 -2 0 -22 5 -45 12 -24 7 -55 12 -70 12 -16 -1 -28 2 -28 5 0
6 -265 12 -271 6z"/>
<path d="M15259 13275 c-2 -2 -25 -6 -50 -9 -89 -10 -234 -50 -314 -85 -79
-35 -149 -72 -166 -87 -8 -8 -19 -14 -24 -14 -4 0 -41 -25 -82 -55 -83 -63
-190 -168 -245 -241 -21 -27 -42 -54 -48 -61 -5 -7 -10 -15 -10 -19 0 -4 -6
-15 -14 -23 -12 -13 -87 -155 -91 -171 -1 -3 -5 -14 -10 -25 -24 -58 -45 -117
-49 -137 -3 -13 -28 -95 -57 -183 -28 -88 -52 -164 -53 -170 -2 -5 -6 -17 -9
-25 -8 -22 -29 -89 -31 -103 -1 -7 -25 -84 -53 -172 -57 -178 -67 -208 -68
-215 -1 -3 -19 -59 -40 -125 -21 -66 -40 -126 -41 -133 -1 -8 -6 -21 -10 -30
-4 -9 -8 -22 -9 -27 -2 -6 -19 -62 -40 -125 -20 -63 -38 -119 -39 -125 -4 -19
-57 -190 -63 -205 -4 -8 -7 -17 -8 -20 0 -3 -14 -45 -29 -95 -16 -49 -28 -91
-27 -93 1 -1 -5 -18 -13 -37 -8 -19 -13 -35 -10 -35 3 0 -1 -10 -8 -22 -6 -13
-13 -30 -13 -38 -1 -8 -12 -44 -25 -80 -12 -36 -23 -72 -25 -80 -2 -8 -13 -46
-26 -85 -13 -38 -24 -72 -24 -75 0 -3 -6 -21 -13 -41 -7 -20 -14 -45 -16 -55
-2 -10 -13 -44 -24 -74 -11 -30 -30 -89 -42 -130 -12 -41 -33 -106 -45 -145
-25 -76 -69 -217 -70 -225 -1 -4 -60 -192 -88 -280 -6 -19 -12 -37 -12 -40 0
-3 -8 -27 -18 -55 -9 -27 -17 -53 -17 -57 0 -5 -9 -32 -20 -60 -20 -57 -50
-158 -50 -171 1 -12 -30 -67 -37 -67 -3 0 -3 3 0 7 4 3 2 12 -4 20 -6 7 -9 13
-5 13 3 0 -1 17 -8 38 -8 20 -35 105 -61 187 -26 83 -69 220 -96 306 -27 86
-52 165 -54 175 -2 11 -9 35 -16 54 -7 19 -13 40 -14 45 -1 6 -3 13 -4 17 -1
4 -8 23 -17 43 -8 19 -11 35 -8 35 4 0 1 7 -6 15 -7 8 -9 15 -5 15 4 0 3 6 -3
13 -6 6 -10 14 -9 17 0 3 -11 41 -25 85 -14 44 -38 118 -53 165 -15 47 -28 92
-30 100 -2 9 -15 51 -30 95 -15 44 -27 88 -28 98 -1 9 -5 17 -9 17 -4 0 -8 6
-8 13 0 10 -48 169 -146 480 -13 42 -35 113 -48 156 -14 44 -29 89 -36 100 -6
12 -9 21 -6 21 3 0 -8 37 -23 83 -15 45 -28 84 -29 87 0 3 -3 12 -6 20 -3 8
-19 62 -36 120 -17 58 -35 114 -40 125 -13 34 -33 105 -33 120 0 8 -4 15 -9
15 -4 0 -8 7 -8 15 0 15 -27 103 -77 254 -14 40 -27 81 -28 90 -2 9 -4 16 -5
16 -1 0 -3 8 -5 17 -4 24 -26 91 -34 103 -3 6 -6 16 -7 23 -8 53 -19 37 -61
-88 -24 -74 -46 -139 -47 -145 -2 -5 -6 -17 -9 -25 -5 -15 -70 -210 -72 -220
-1 -3 -4 -12 -8 -20 -10 -27 -50 -155 -49 -157 1 -2 -6 -19 -14 -40 -9 -20
-18 -44 -20 -52 -2 -9 -22 -70 -45 -136 -22 -66 -42 -124 -43 -130 -2 -5 -6
-17 -9 -25 -5 -15 -50 -150 -52 -160 -1 -3 -4 -12 -8 -20 -5 -14 -70 -209 -72
-220 -1 -3 -4 -12 -8 -20 -7 -20 -211 -633 -213 -642 -1 -5 -3 -10 -4 -13 -1
-3 -3 -8 -4 -12 -1 -5 -4 -12 -7 -18 -4 -5 -10 -26 -14 -45 -4 -19 -11 -41
-16 -50 -7 -14 -66 -186 -74 -220 -3 -8 -38 -116 -80 -239 -41 -122 -75 -229
-75 -235 0 -7 14 -55 31 -107 17 -52 32 -101 34 -109 2 -8 8 -27 14 -42 6 -16
8 -28 5 -28 -4 0 -2 -6 4 -12 6 -7 10 -15 10 -18 -1 -7 61 -210 72 -235 4 -11
18 -54 30 -95 13 -41 33 -106 45 -145 12 -38 39 -124 59 -190 20 -66 41 -128
46 -137 6 -10 10 -23 10 -30 0 -7 16 -62 36 -123 19 -60 37 -117 39 -125 2 -8
9 -28 15 -45 6 -16 13 -38 15 -48 4 -19 68 -220 112 -357 14 -41 27 -81 28
-90 2 -8 19 -64 38 -125 82 -257 111 -350 113 -357 1 -5 3 -10 4 -13 1 -3 4
-9 5 -15 1 -5 3 -11 5 -12 1 -2 3 -10 5 -18 4 -21 64 -211 74 -235 47 -117
174 -332 203 -343 4 -2 8 -9 8 -15 0 -22 185 -188 279 -250 140 -93 339 -176
459 -192 15 -2 27 -4 27 -5 0 -7 92 -12 240 -15 133 -3 192 1 270 15 186 34
337 95 495 198 81 54 244 206 305 286 89 115 156 250 214 428 80 248 101 317
101 332 0 9 5 16 12 16 6 0 9 3 5 6 -3 3 -2 17 3 30 6 14 12 35 14 47 3 12 18
61 35 110 16 48 27 87 24 87 -3 0 0 6 6 13 6 8 12 22 14 33 3 18 32 112 44
144 8 19 7 18 17 60 5 19 11 40 14 45 4 6 7 15 8 21 1 5 21 68 44 140 23 71
44 136 45 144 2 8 4 16 5 18 2 1 4 7 5 12 1 6 4 12 5 15 1 3 4 10 5 15 1 6 3
11 5 13 1 1 3 9 5 17 3 16 64 216 73 240 3 8 6 17 7 20 1 3 4 12 8 20 3 8 10
31 16 50 5 19 29 96 52 170 24 74 44 137 44 140 0 3 6 21 12 40 6 19 30 96 53
170 23 74 44 142 47 150 7 18 11 30 16 50 2 8 7 22 10 30 7 19 97 310 102 330
2 8 11 35 20 60 9 25 19 56 21 69 3 13 9 31 13 40 5 9 9 19 9 24 0 4 12 42 25
85 45 137 100 317 98 317 -1 0 5 16 13 35 8 19 14 37 14 40 1 3 3 12 6 20 8
24 106 339 130 419 13 42 26 69 30 63 4 -7 4 -16 1 -22 -3 -5 -1 -10 6 -10 7
0 10 -3 6 -6 -3 -3 3 -29 14 -58 12 -28 20 -53 20 -56 -1 -7 9 -42 19 -65 7
-16 61 -187 65 -205 2 -10 48 -157 86 -275 21 -66 39 -126 39 -133 0 -7 4 -20
10 -30 8 -14 70 -206 76 -237 1 -5 13 -44 27 -85 13 -41 30 -95 37 -120 8 -25
14 -47 15 -50 1 -3 4 -12 8 -20 8 -22 89 -283 91 -295 1 -5 4 -14 7 -20 3 -5
12 -32 19 -60 7 -27 17 -55 22 -61 5 -7 8 -16 7 -20 -1 -5 0 -16 4 -24 3 -8
28 -87 56 -175 27 -88 53 -171 57 -185 4 -14 9 -28 10 -32 1 -5 3 -10 4 -13 1
-3 3 -8 4 -12 1 -5 19 -62 40 -128 21 -66 39 -124 41 -130 1 -5 5 -17 8 -25 5
-14 60 -190 63 -200 0 -3 3 -12 7 -20 9 -23 70 -224 69 -230 0 -3 6 -21 13
-40 8 -19 30 -89 50 -155 20 -66 39 -127 42 -135 7 -17 12 -33 16 -53 1 -6 5
-16 8 -22 4 -5 10 -23 14 -40 11 -41 2 -10 100 -320 31 -99 58 -184 60 -190 2
-10 9 -30 24 -70 18 -47 95 -193 117 -222 13 -17 24 -36 24 -41 0 -6 3 -12 8
-14 4 -1 25 -25 47 -53 39 -49 127 -139 177 -181 34 -29 157 -114 164 -114 3
0 19 -9 35 -21 16 -11 35 -22 42 -23 7 -1 23 -8 37 -16 14 -8 27 -15 30 -16 6
-1 38 -13 65 -24 43 -17 81 -30 105 -34 14 -3 40 -10 59 -15 57 -17 149 -25
286 -24 132 0 180 4 192 16 3 4 15 7 26 7 38 0 184 78 253 136 90 75 136 137
205 275 15 32 35 108 45 179 19 129 1 227 -86 490 -15 45 -30 92 -65 210 -1 3
-4 12 -8 20 -8 23 -29 90 -31 103 -1 7 -4 17 -7 22 -8 14 -23 68 -21 78 1 4
-2 7 -6 7 -4 0 -8 8 -9 18 -1 16 -29 109 -70 232 -8 25 -16 52 -18 60 -2 8
-16 51 -30 95 -15 44 -28 87 -30 95 -2 8 -20 65 -40 125 -20 61 -38 117 -40
126 -2 9 -23 77 -46 150 -24 74 -44 136 -44 139 -1 4 -22 71 -40 130 -1 3 -4
12 -7 20 -3 8 -25 76 -48 150 -23 74 -54 176 -70 225 -22 70 -63 203 -75 245
-1 3 -6 16 -12 30 -6 14 -14 41 -18 60 -4 19 -10 40 -13 45 -4 6 -7 15 -8 22
-2 13 -22 79 -31 103 -3 8 -8 21 -10 28 -1 6 -5 18 -6 25 -2 6 -7 21 -11 32
-15 38 -64 197 -72 230 -2 6 -26 82 -54 170 -29 88 -53 165 -54 170 -2 6 -10
35 -19 65 -9 30 -16 58 -14 61 1 3 -3 12 -10 20 -6 8 -14 26 -17 39 -2 14 -11
44 -20 68 -8 23 -13 42 -9 42 3 0 0 6 -6 13 -6 8 -12 22 -14 33 -2 10 -6 26
-9 34 -3 8 -11 35 -18 60 -7 25 -16 54 -21 65 -4 11 -22 67 -39 125 -17 58
-35 114 -40 125 -5 11 -14 40 -21 65 -6 25 -14 52 -17 60 -3 8 -6 18 -7 23 -2
4 -4 9 -5 12 -1 3 -3 8 -4 13 -1 4 -15 47 -30 96 -16 49 -29 94 -31 100 -1 6
-7 24 -13 39 -7 16 -12 32 -12 36 0 9 -47 158 -56 181 -4 8 -8 20 -9 26 -4 18
-65 213 -97 309 -16 50 -31 95 -32 100 -2 6 -6 24 -10 40 -4 17 -11 39 -16 50
-5 11 -27 81 -50 155 -23 74 -48 153 -55 175 -11 33 -33 108 -41 138 -1 4 -3
9 -4 12 -1 3 -3 8 -4 13 -4 16 -39 121 -58 172 -78 210 -206 393 -378 541 -46
39 -147 109 -159 109 -6 0 -11 5 -11 10 0 6 -6 10 -14 10 -7 0 -19 7 -26 15
-6 8 -15 14 -18 13 -4 -1 -29 9 -57 21 -27 12 -63 28 -80 36 -29 13 -93 34
-118 39 -7 2 -23 6 -37 10 -14 4 -38 9 -55 11 -16 2 -30 4 -30 5 0 10 -537 25
-546 15z"/>
</g>
</svg>
